<svg xmlns="http://www.w3.org/2000/svg" viewBox="0 0 516.9 70.75"><defs><style>.cls-1{fill:#110200;}.cls-2{opacity:0.8;}.cls-3{fill:#160400;}</style></defs><g id="Layer_2" data-name="Layer 2"><g id="Layer_1-2" data-name="Layer 1"><path class="cls-1" d="M80.22,3.44A30.14,30.14,0,0,1,95,0a27.12,27.12,0,0,1,12.15,2.65A21.61,21.61,0,0,1,115.63,10a22.43,22.43,0,0,1,3.57,9.62,1.05,1.05,0,0,1-1,1.2H106a1,1,0,0,1-1-.75,11.55,11.55,0,0,0-3.42-5.77,10.1,10.1,0,0,0-7-2.46,11,11,0,0,0-9.21,4.41Q82,20.69,82,27.8t3.32,11.6a11.15,11.15,0,0,0,9.41,4.33,13.9,13.9,0,0,0,7.15-1.95,10,10,0,0,0,4.49-6.4V35.3H95.31a1,1,0,0,1-1-1V25.41a1,1,0,0,1,1-1h23.26a1,1,0,0,1,1,1V54.09a1,1,0,0,1-1,1h-9.1a1,1,0,0,1-1-.76v-5A16,16,0,0,1,102.28,54a21.88,21.88,0,0,1-8.79,1.64,26.9,26.9,0,0,1-13.74-3.43,23.31,23.31,0,0,1-9.18-9.73A31.53,31.53,0,0,1,67.33,27.8a30.76,30.76,0,0,1,3.32-14.68A23.31,23.31,0,0,1,80.22,3.44Z"/><path class="cls-1" d="M151,25.75a1,1,0,0,1-1,1h-4q-8.19,0-8.2,9V54.09a1,1,0,0,1-1,1H125.29a1,1,0,0,1-1-1V15.88a1,1,0,0,1,1-1h11.33a1,1,0,0,1,1,.85l.11,5.08a12.16,12.16,0,0,1,4.45-4.45,14,14,0,0,1,6.88-1.48h.65a1.3,1.3,0,0,1,1.3,1.3Z"/><path class="cls-1" d="M160.72,16.91a22.87,22.87,0,0,1,11-2.54A25.18,25.18,0,0,1,183,16.79a18.28,18.28,0,0,1,7.61,6.83,18.92,18.92,0,0,1,2.74,10.2,21.68,21.68,0,0,1-.39,4.37H164.82v.15q1,7.5,7.81,7.5,5.31,0,6.73-3.74a1,1,0,0,1,.95-.71h11.27a1.07,1.07,0,0,1,1,1.26,15.15,15.15,0,0,1-2.78,5.88,16.89,16.89,0,0,1-6.64,5.16,22.85,22.85,0,0,1-9.64,1.91,27.79,27.79,0,0,1-12.26-2.5,17.75,17.75,0,0,1-7.85-7.1,21.11,21.11,0,0,1-2.69-10.86,22.25,22.25,0,0,1,2.61-11A18,18,0,0,1,160.72,16.91Zm16.71,8.59a8,8,0,0,0-5-1.52,7.81,7.81,0,0,0-5,1.52A6.71,6.71,0,0,0,165,29.91h15A6.87,6.87,0,0,0,177.43,25.5Z"/><path class="cls-1" d="M214.06,41.62l8.13-26a1,1,0,0,1,1-.73h12.17a1,1,0,0,1,1,1.41l-16.95,44a33.18,33.18,0,0,1-2.77,5.93,9.61,9.61,0,0,1-3.44,3.36,10.6,10.6,0,0,1-5.27,1.17h-11.3a1,1,0,0,1-1-1V60.63a1,1,0,0,1,1-1h5.29a5.74,5.74,0,0,0,2.81-.55,3.71,3.71,0,0,0,1.48-2.19l.55-1.48L191.8,16.25a1,1,0,0,1,1-1.41h12.1a1,1,0,0,1,1,.72Z"/><path class="cls-1" d="M39.74,3.48v13a3.42,3.42,0,0,1-3.41,3.42H23.65a3.78,3.78,0,0,0-3.78,3.78v12.4a3.69,3.69,0,0,1-3.69,3.69H3.69A3.69,3.69,0,0,1,0,36.12V21.89a4.72,4.72,0,0,1,1.38-3.33L18.53,1.41A4.57,4.57,0,0,1,21.77.07H36.33A3.41,3.41,0,0,1,39.74,3.48Z"/><path class="cls-1" d="M19.89,56.25v-13a3.42,3.42,0,0,1,3.41-3.42H36A3.78,3.78,0,0,0,39.76,36V23.61a3.69,3.69,0,0,1,3.69-3.69H55.94a3.69,3.69,0,0,1,3.69,3.69V37.84a4.67,4.67,0,0,1-1.38,3.33L41.1,58.32a4.56,4.56,0,0,1-3.23,1.34H23.3A3.41,3.41,0,0,1,19.89,56.25Z"/><g class="cls-2"><path class="cls-3" d="M272.94,4.3a12.07,12.07,0,0,1,4.56,10A12.11,12.11,0,0,1,275.09,22a12.69,12.69,0,0,1-7,4.25q11.61,2.19,11.6,12.58a12.82,12.82,0,0,1-4.93,10.66q-4.94,3.88-14.2,3.88H241.34V.69H260Q268.39.69,272.94,4.3ZM260.32,23.58q5.06,0,7.84-2.26a7.58,7.58,0,0,0,2.78-6.25,7.54,7.54,0,0,0-2.74-6.21c-1.84-1.48-4.46-2.22-7.88-2.22H247.9V23.58Zm.23,23.88c4,0,7.09-.78,9.23-2.34a7.56,7.56,0,0,0,3.2-6.47,7.93,7.93,0,0,0-3.24-6.82q-3.24-2.37-9.19-2.37H247.9v18Z"/><path class="cls-3" d="M318.16,53.41h-5.34L312,48.29q-4.38,5.57-12.28,5.57-6.85,0-11-4.22t-4.14-13.25V15h6.18V36c0,4,.86,7,2.6,9.08a9.1,9.1,0,0,0,7.41,3.12A9.92,9.92,0,0,0,309,44.45q3-3.77,3-10.25V15h6.17Z"/><path class="cls-3" d="M332.21,46.4a14,14,0,0,0,14.08.57,4.89,4.89,0,0,0,2.52-4.26,4.69,4.69,0,0,0-1.2-3.46,6.44,6.44,0,0,0-3.13-1.66q-1.92-.45-5.46-.9a47.79,47.79,0,0,1-8.13-1.58A11.31,11.31,0,0,1,325.77,32a8.42,8.42,0,0,1-2-5.91,10,10,0,0,1,1.92-6,12.69,12.69,0,0,1,5.23-4.1,18.23,18.23,0,0,1,7.46-1.47q6.78,0,11,3.16a11.78,11.78,0,0,1,4.71,9H348a7.21,7.21,0,0,0-2.93-5,10.21,10.21,0,0,0-6.4-2,11.15,11.15,0,0,0-6.33,1.62,4.92,4.92,0,0,0-2.41,4.26,3.93,3.93,0,0,0,1.13,3,6,6,0,0,0,2.9,1.43q1.77.38,5.38.83a44.66,44.66,0,0,1,8.33,1.66,11.27,11.27,0,0,1,5.27,3.39,9.39,9.39,0,0,1,2,6.32,9.66,9.66,0,0,1-2,6.1,13,13,0,0,1-5.5,4.07,20,20,0,0,1-7.68,1.43q-7.53,0-12.09-3.46A11.62,11.62,0,0,1,323,40.76h6.18A7.14,7.14,0,0,0,332.21,46.4Z"/><path class="cls-3" d="M366.73,4.15a4,4,0,1,1-8,0,4,4,0,1,1,8,0ZM365.83,15V53.41h-6.18V15Z"/><path class="cls-3" d="M406.35,32V53.41h-6.18v-21q0-6-2.67-9.08c-1.78-2.08-4.36-3.13-7.72-3.13A10.41,10.41,0,0,0,381.27,24q-3.09,3.76-3.09,10.24V53.41H372V15h5.35l.83,5.19q4.36-5.64,12.65-5.64,7,0,11.26,4.21C404.93,21.58,406.35,26,406.35,32Z"/><path class="cls-3" d="M419.37,17a18.35,18.35,0,0,1,9.49-2.44,19.37,19.37,0,0,1,9.34,2.18,15.81,15.81,0,0,1,6.41,6.33,20.69,20.69,0,0,1,2.48,9.71q0,.82-.15,2.64H417.11v.53a12.93,12.93,0,0,0,3.47,9,11.58,11.58,0,0,0,8.66,3.39,11.79,11.79,0,0,0,7-2.07,9.92,9.92,0,0,0,3.88-5.76h6.25a15.9,15.9,0,0,1-5.65,9.6,16.79,16.79,0,0,1-11.07,3.73,19.88,19.88,0,0,1-10-2.45A16.82,16.82,0,0,1,413,44.48a21.63,21.63,0,0,1-2.37-10.28,22.23,22.23,0,0,1,2.29-10.32A16.81,16.81,0,0,1,419.37,17ZM437,22.68a12.11,12.11,0,0,0-8.1-2.71,11.39,11.39,0,0,0-7.68,2.86,10.87,10.87,0,0,0-3.77,7.46h23.2A10.81,10.81,0,0,0,437,22.68Z"/><path class="cls-3" d="M459.63,46.4a14,14,0,0,0,14.08.57,4.89,4.89,0,0,0,2.52-4.26,4.69,4.69,0,0,0-1.2-3.46,6.39,6.39,0,0,0-3.13-1.66q-1.92-.45-5.46-.9a47.79,47.79,0,0,1-8.13-1.58A11.31,11.31,0,0,1,453.19,32a8.42,8.42,0,0,1-2-5.91,10,10,0,0,1,1.92-6,12.75,12.75,0,0,1,5.23-4.1,18.23,18.23,0,0,1,7.46-1.47q6.78,0,11,3.16a11.8,11.8,0,0,1,4.7,9h-6.17a7.19,7.19,0,0,0-2.94-5,10.21,10.21,0,0,0-6.4-2,11.17,11.17,0,0,0-6.33,1.62,4.92,4.92,0,0,0-2.41,4.26,3.93,3.93,0,0,0,1.13,3,6,6,0,0,0,2.9,1.43q1.77.38,5.39.83a44.71,44.71,0,0,1,8.32,1.66,11.27,11.27,0,0,1,5.27,3.39,9.39,9.39,0,0,1,2,6.32,9.67,9.67,0,0,1-2,6.1,13,13,0,0,1-5.5,4.07,20,20,0,0,1-7.68,1.43q-7.53,0-12.09-3.46a11.64,11.64,0,0,1-4.63-9.64h6.18A7.14,7.14,0,0,0,459.63,46.4Z"/><path class="cls-3" d="M494.19,46.4a14.06,14.06,0,0,0,14.09.57,4.89,4.89,0,0,0,2.52-4.26,4.69,4.69,0,0,0-1.2-3.46,6.44,6.44,0,0,0-3.13-1.66q-1.92-.45-5.46-.9a47.79,47.79,0,0,1-8.13-1.58A11.31,11.31,0,0,1,487.76,32a8.42,8.42,0,0,1-2-5.91,10,10,0,0,1,1.92-6,12.69,12.69,0,0,1,5.23-4.1,18.23,18.23,0,0,1,7.46-1.47q6.78,0,11,3.16a11.78,11.78,0,0,1,4.71,9H510a7.21,7.21,0,0,0-2.93-5,10.22,10.22,0,0,0-6.41-2,11.11,11.11,0,0,0-6.32,1.62,4.92,4.92,0,0,0-2.41,4.26,3.89,3.89,0,0,0,1.13,3,6,6,0,0,0,2.9,1.43q1.77.38,5.38.83a44.37,44.37,0,0,1,8.32,1.66,11.26,11.26,0,0,1,5.28,3.39,9.39,9.39,0,0,1,2,6.32,9.66,9.66,0,0,1-2,6.1,13,13,0,0,1-5.5,4.07,20,20,0,0,1-7.68,1.43q-7.53,0-12.09-3.46A11.62,11.62,0,0,1,485,40.76h6.17A7.19,7.19,0,0,0,494.19,46.4Z"/></g></g></g></svg>